C:\Users\r0593348\3dpredictsim\Results\Batchsim_tmt_linear\Pog_s1_tmt_aCst_d02_k250_ig24_act_GRF.mot
nRows=27
nColumns=19

name C:\Users\r0593348\3dpredictsim\Results\Batchsim_tmt_linear\Pog_s1_tmt_aCst_d02_k250_ig24_act_GRF.mot
datacolumns 19
datarows 27
range 0.0000000000 0.3272294906
endheader
time 	ground_force_vx	ground_force_vy	ground_force_vz	ground_force_px	ground_force_py	ground_force_pz	1_ground_force_vx	1_ground_force_vy	1_ground_force_vz	1_ground_force_px	1_ground_force_py	1_ground_force_pz	ground_torque_x	ground_torque_y	ground_torque_z	1_ground_torque_x	1_ground_torque_y	1_ground_torque_z
        0.0000000000	      -25.0958232589	       21.1167973708	        8.1623249425	        0.1875337595	        0.0000000000	        0.0528154213	       72.2729180927	      369.2903621707	       -2.3721528104	       -0.3690123568	        0.0000000000	       -0.0271353037	        0.0000000000	        0.0000000000	        0.0000000000	        0.0000000000	        0.0000000000	        0.0000000000	
        0.0125857496	      -84.5200689612	       97.5336994103	       49.4713623718	        0.1941918448	        0.0000000000	        0.0508282514	       47.4474293511	      270.6024174942	      -13.3540028068	       -0.3573991561	        0.0000000000	       -0.0228431180	        0.0000000000	        0.0000000000	        0.0000000000	        0.0000000000	        0.0000000000	        0.0000000000	
        0.0251714993	      -43.6937727750	      285.7469058961	       22.9185226224	        0.1988506434	        0.0000000000	        0.0485038995	       32.9995043953	      224.9381948589	      -18.5972505739	       -0.3506231462	        0.0000000000	       -0.0198859539	        0.0000000000	        0.0000000000	        0.0000000000	        0.0000000000	        0.0000000000	        0.0000000000	
        0.0377572489	      -50.0893237393	      510.5122097072	       -4.0499774634	        0.2021687669	        0.0000000000	        0.0482177220	       30.5457462694	      189.9574287060	      -18.2547383781	       -0.3505318795	        0.0000000000	       -0.0199152244	        0.0000000000	        0.0000000000	        0.0000000000	        0.0000000000	        0.0000000000	        0.0000000000	
        0.0503429986	      -97.6137916038	      759.7836047324	      -18.1771334492	        0.2125255667	        0.0000000000	        0.0503004279	       21.5193249998	      141.3264292583	      -19.1999358985	       -0.3504851971	        0.0000000000	       -0.0201044486	        0.0000000000	        0.0000000000	        0.0000000000	        0.0000000000	        0.0000000000	        0.0000000000	
        0.0629287482	     -134.0922122975	      911.1823369013	      -19.2180334925	        0.2208139862	        0.0000000000	        0.0520751938	        5.4661924276	       71.9315603527	      -19.2423692853	       -0.3508978111	        0.0000000000	       -0.0209760378	        0.0000000000	        0.0000000000	        0.0000000000	        0.0000000000	        0.0000000000	        0.0000000000	
        0.0755144978	     -136.0719196024	      930.6426062572	      -20.5546844072	        0.2261828709	        0.0000000000	        0.0530102755	      -12.3854191304	       15.2694246038	       -5.9499093508	       -0.3568501223	        0.0000000000	       -0.0208970560	        0.0000000000	        0.0000000000	        0.0000000000	        0.0000000000	        0.0000000000	        0.0000000000	
        0.0881002475	     -122.5352268706	      884.2127468202	      -19.6031834400	        0.2303765430	        0.0000000000	        0.0534977695	      -15.4849328640	       12.5543550143	        0.1359681505	       -0.3496638125	        0.0000000000	       -0.0175477624	        0.0000000000	        0.0000000000	        0.0000000000	        0.0000000000	        0.0000000000	        0.0000000000	
        0.1006859971	     -107.2286359348	      825.6098097175	      -19.1391466432	        0.2348903481	        0.0000000000	        0.0535780588	      -21.3640521737	       14.9545722894	        0.6455220178	       -0.3338697359	        0.0000000000	       -0.0182001523	        0.0000000000	        0.0000000000	        0.0000000000	        0.0000000000	        0.0000000000	        0.0000000000	
        0.1132717468	      -94.9833944925	      776.1115514696	      -19.1056843035	        0.2403503699	        0.0000000000	        0.0533358919	      -22.1150436484	       13.7248154912	        1.2068645603	       -0.3133390064	        0.0000000000	       -0.0192445064	        0.0000000000	        0.0000000000	        0.0000000000	        0.0000000000	        0.0000000000	        0.0000000000	
        0.1258574964	      -86.8600249115	      745.5250362246	      -19.6204969532	        0.2472928865	        0.0000000000	        0.0527249629	      -19.8865302602	       11.2021491070	        1.4693163821	       -0.2888537324	        0.0000000000	       -0.0208845713	        0.0000000000	        0.0000000000	        0.0000000000	        0.0000000000	        0.0000000000	        0.0000000000	
        0.1384432460	      -79.0960108155	      718.9238449474	      -19.6473316570	        0.2541377607	        0.0000000000	        0.0520111478	      -15.2477786226	        7.9728345273	        1.3269125794	        0.0000000000	        0.0000000000	        0.0000000000	        0.0000000000	        0.0000000000	        0.0000000000	        0.0000000000	        0.0000000000	        0.0000000000	
        0.1510289957	      -70.3515919342	      692.3980267624	      -19.8762412051	        0.2606510294	        0.0000000000	        0.0514098258	      -10.5515670721	        5.2852023418	        0.9389616709	        0.0000000000	        0.0000000000	        0.0000000000	        0.0000000000	        0.0000000000	        0.0000000000	        0.0000000000	        0.0000000000	        0.0000000000	
        0.1636147453	      -61.7813069957	      669.3672092847	      -20.2569856831	        0.2673907029	        0.0000000000	        0.0508527125	       -7.3370166385	        3.5619827136	        0.6501515955	        0.0000000000	        0.0000000000	        0.0000000000	        0.0000000000	        0.0000000000	        0.0000000000	        0.0000000000	        0.0000000000	        0.0000000000	
        0.1762004950	      -54.4796982719	      650.7931658672	      -20.7095052931	        0.2746215179	        0.0000000000	        0.0502512762	       -5.3480721203	        2.5386255980	        0.4665570261	        0.0000000000	        0.0000000000	        0.0000000000	        0.0000000000	        0.0000000000	        0.0000000000	        0.0000000000	        0.0000000000	        0.0000000000	
        0.1887862446	      -48.6564170397	      635.7647462868	      -20.9436658176	        0.2823050883	        0.0000000000	        0.0495611178	       -3.9060312530	        1.8225759382	        0.3354220039	        0.0000000000	        0.0000000000	        0.0000000000	        0.0000000000	        0.0000000000	        0.0000000000	        0.0000000000	        0.0000000000	        0.0000000000	
        0.2013719942	      -43.8347211526	      624.0026259555	      -20.6948884032	        0.2903458283	        0.0000000000	        0.0487760589	       -2.7463272824	        1.2630209455	        0.2311011266	        0.0000000000	        0.0000000000	        0.0000000000	        0.0000000000	        0.0000000000	        0.0000000000	        0.0000000000	        0.0000000000	        0.0000000000	
        0.2139577439	      -39.8397647539	      614.6962721379	      -19.7962525265	        0.2984916749	        0.0000000000	        0.0479238553	       -1.8966582464	        0.8607012537	        0.1552189376	        0.0000000000	        0.0000000000	        0.0000000000	        0.0000000000	        0.0000000000	        0.0000000000	        0.0000000000	        0.0000000000	        0.0000000000	
        0.2265434935	      -36.1177882213	      607.2656211145	      -18.2422283135	        0.3064147384	        0.0000000000	        0.0470559906	       -1.3441389151	        0.6012586488	        0.1055770803	        0.0000000000	        0.0000000000	        0.0000000000	        0.0000000000	        0.0000000000	        0.0000000000	        0.0000000000	        0.0000000000	        0.0000000000	
        0.2391292431	      -32.2943505570	      600.9159868125	      -16.8862295104	        0.3140197438	        0.0000000000	        0.0461870036	       -1.0200173654	        0.4489509746	        0.0760449996	        0.0000000000	        0.0000000000	        0.0000000000	        0.0000000000	        0.0000000000	        0.0000000000	        0.0000000000	        0.0000000000	        0.0000000000	
        0.2517149928	      -28.4555820254	      594.5288389932	      -16.1817383416	        0.3213326873	        0.0000000000	        0.0453140589	       -0.8411557853	        0.3638728589	        0.0591807739	        0.0000000000	        0.0000000000	        0.0000000000	        0.0000000000	        0.0000000000	        0.0000000000	        0.0000000000	        0.0000000000	        0.0000000000	
        0.2643007424	      -24.8575988853	      587.9513994491	      -15.9243715628	        0.3283901063	        0.0000000000	        0.0444383142	       -0.7527913823	        0.3200643644	        0.0502157532	        0.0000000000	        0.0000000000	        0.0000000000	        0.0000000000	        0.0000000000	        0.0000000000	        0.0000000000	        0.0000000000	        0.0000000000	
        0.2768864921	      -21.5130740848	      581.2432614317	      -15.9414288760	        0.3351844773	        0.0000000000	        0.0435634520	       -0.7234154844	        0.3025306512	        0.0460733964	        0.0000000000	        0.0000000000	        0.0000000000	        0.0000000000	        0.0000000000	        0.0000000000	        0.0000000000	        0.0000000000	        0.0000000000	
        0.2894722417	      -18.0339878200	      574.6780439733	      -16.0316237105	        0.3417427061	        0.0000000000	        0.0426854994	       -0.7380838978	        0.3039579203	        0.0452570944	        0.0000000000	        0.0000000000	        0.0000000000	        0.0000000000	        0.0000000000	        0.0000000000	        0.0000000000	        0.0000000000	        0.0000000000	
        0.3020579913	      -14.3653753534	      567.9869961239	      -15.8539078997	        0.3480279374	        0.0000000000	        0.0418108475	       -0.7903238985	        0.3208945983	        0.0467112855	        0.0000000000	        0.0000000000	        0.0000000000	        0.0000000000	        0.0000000000	        0.0000000000	        0.0000000000	        0.0000000000	        0.0000000000	
        0.3146437410	      -10.3788108961	      560.8503910977	      -15.4640673685	        0.3539665155	        0.0000000000	        0.0409497310	       -0.8929604184	        0.3576677371	        0.0504965239	        0.0000000000	        0.0000000000	        0.0000000000	        0.0000000000	        0.0000000000	        0.0000000000	        0.0000000000	        0.0000000000	        0.0000000000	
        0.3272294906	       -6.3389416575	      555.1043632754	      -14.6105046569	        0.3594819605	        0.0000000000	        0.0401099057	       -1.0749915601	        0.4248532190	        0.0571469765	        0.0000000000	        0.0000000000	        0.0000000000	        0.0000000000	        0.0000000000	        0.0000000000	        0.0000000000	        0.0000000000	        0.0000000000	
